<svg viewBox="0 0 400 300" xmlns="http://www.w3.org/2000/svg">
  <defs>
    <!-- Gradients matching your logo -->
    <linearGradient id="bgGradient" x1="0%" y1="0%" x2="100%" y2="100%">
      <stop offset="0%" style="stop-color:#00D4FF;stop-opacity:0.1"/>
      <stop offset="50%" style="stop-color:#4F46E5;stop-opacity:0.1"/>
      <stop offset="100%" style="stop-color:#8B5CF6;stop-opacity:0.1"/>
    </linearGradient>
    
    <linearGradient id="hexGradient" x1="0%" y1="0%" x2="100%" y2="100%">
      <stop offset="0%" style="stop-color:#00D4FF"/>
      <stop offset="50%" style="stop-color:#4F46E5"/>
      <stop offset="100%" style="stop-color:#8B5CF6"/>
    </linearGradient>
    
    <linearGradient id="screenGradient" x1="0%" y1="0%" x2="100%" y2="100%">
      <stop offset="0%" style="stop-color:#1F2937"/>
      <stop offset="100%" style="stop-color:#374151"/>
    </linearGradient>
    
    <!-- Shadow filter -->
    <filter id="shadow">
      <feDropShadow dx="2" dy="4" stdDeviation="3" flood-opacity="0.2"/>
    </filter>
  </defs>

  <!-- Background -->
  <circle cx="200" cy="150" r="140" fill="url(#bgGradient)" opacity="0.3"/>
  
  <!-- Ground/Platform -->
  <ellipse cx="200" cy="250" rx="150" ry="8" fill="#374151" opacity="0.3"/>
  
  <!-- Laptop base -->
  <g transform="translate(100, 150)" filter="url(#shadow)">
    <!-- Laptop body -->
    <rect x="0" y="60" width="200" height="12" rx="6" fill="#6B7280"/>
    <rect x="5" y="55" width="190" height="8" rx="4" fill="#9CA3AF"/>
    
    <!-- Screen -->
    <rect x="10" y="0" width="180" height="110" rx="8" fill="#374151"/>
    <rect x="15" y="5" width="170" height="100" rx="4" fill="url(#screenGradient)"/>
    
    <!-- Screen content -->
    <!-- Header bar -->
    <rect x="20" y="10" width="160" height="15" rx="2" fill="#4F46E5" opacity="0.2"/>
    
    <!-- Central hexagonal dashboard element -->
    <g transform="translate(85, 35)">
      <!-- Main hex -->
      <polygon points="15,0 30,8.7 30,26 15,34.6 0,26 0,8.7" 
               fill="url(#hexGradient)" opacity="0.9"/>
      
      <!-- Dots pattern -->
      <circle cx="10" cy="17" r="1.5" fill="white" opacity="0.8"/>
      <circle cx="20" cy="17" r="1.5" fill="white" opacity="0.8"/>
      <circle cx="15" cy="12" r="1" fill="white" opacity="0.6"/>
      <circle cx="15" cy="22" r="1" fill="white" opacity="0.6"/>
      <circle cx="8" cy="13" r="0.8" fill="white" opacity="0.4"/>
      <circle cx="22" cy="21" r="0.8" fill="white" opacity="0.4"/>
    </g>
    
    <!-- Configuration panels -->
    <rect x="25" y="75" width="40" height="25" rx="3" fill="#00D4FF" opacity="0.3"/>
    <rect x="70" y="75" width="40" height="25" rx="3" fill="#4F46E5" opacity="0.3"/>
    <rect x="115" y="75" width="40" height="25" rx="3" fill="#8B5CF6" opacity="0.3"/>
    
    <!-- Configuration lines -->
    <rect x="30" y="80" width="30" height="2" rx="1" fill="#00D4FF" opacity="0.8"/>
    <rect x="30" y="85" width="25" height="2" rx="1" fill="#00D4FF" opacity="0.6"/>
    <rect x="30" y="90" width="20" height="2" rx="1" fill="#00D4FF" opacity="0.4"/>
    
    <rect x="75" y="80" width="30" height="2" rx="1" fill="#4F46E5" opacity="0.8"/>
    <rect x="75" y="85" width="25" height="2" rx="1" fill="#4F46E5" opacity="0.6"/>
    <rect x="75" y="90" width="20" height="2" rx="1" fill="#4F46E5" opacity="0.4"/>
    
    <rect x="120" y="80" width="30" height="2" rx="1" fill="#8B5CF6" opacity="0.8"/>
    <rect x="120" y="85" width="25" height="2" rx="1" fill="#8B5CF6" opacity="0.6"/>
    <rect x="120" y="90" width="20" height="2" rx="1" fill="#8B5CF6" opacity="0.4"/>
  </g>
  
  <!-- Dynamic motion elements -->
  <g opacity="0.6">
    <!-- Left side -->
    <circle cx="60" cy="100" r="4" fill="#8B5CF6"/>
    <circle cx="50" cy="120" r="6" fill="#4F46E5"/>
    <circle cx="40" cy="140" r="3" fill="#00D4FF"/>
    
    <!-- Right side -->
    <circle cx="340" cy="80" r="5" fill="#00D4FF"/>
    <circle cx="350" cy="100" r="3" fill="#4F46E5"/>
    <circle cx="360" cy="120" r="4" fill="#8B5CF6"/>
    
    <!-- Flowing connections -->
    <path d="M 70 110 Q 90 105 110 110" stroke="#8B5CF6" stroke-width="3" 
          fill="none" opacity="0.5" stroke-linecap="round"/>
    <path d="M 290 90 Q 310 85 330 90" stroke="#00D4FF" stroke-width="3" 
          fill="none" opacity="0.5" stroke-linecap="round"/>
  </g>
  
  <!-- Small hexagonal config icons floating around -->
  <g transform="translate(320, 140)" opacity="0.4">
    <polygon points="8,0 16,4.6 16,13.9 8,18.5 0,13.9 0,4.6" 
             fill="url(#hexGradient)"/>
    <circle cx="8" cy="9" r="1" fill="white" opacity="0.8"/>
  </g>
  
  <g transform="translate(80, 200)" opacity="0.3">
    <polygon points="6,0 12,3.5 12,10.4 6,13.9 0,10.4 0,3.5" 
             fill="url(#hexGradient)"/>
    <circle cx="6" cy="7" r="0.8" fill="white" opacity="0.8"/>
  </g>
  
  <!-- Sparkles -->
  <g opacity="0.4">
    <circle cx="140" cy="60" r="1" fill="#00D4FF"/>
    <circle cx="260" cy="50" r="1.5" fill="#4F46E5"/>
    <circle cx="280" cy="180" r="1" fill="#8B5CF6"/>
    <circle cx="120" cy="180" r="1" fill="#00D4FF"/>
  </g>
</svg>