<svg viewBox="0 0 400 300" xmlns="http://www.w3.org/2000/svg">
  <defs>
    <!-- Gradients matching your logo -->
    <linearGradient id="bgGradient" x1="0%" y1="0%" x2="100%" y2="100%">
      <stop offset="0%" style="stop-color:#00D4FF;stop-opacity:0.1"/>
      <stop offset="50%" style="stop-color:#4F46E5;stop-opacity:0.1"/>
      <stop offset="100%" style="stop-color:#8B5CF6;stop-opacity:0.1"/>
    </linearGradient>
    
    <linearGradient id="hexGradient" x1="0%" y1="0%" x2="100%" y2="100%">
      <stop offset="0%" style="stop-color:#00D4FF"/>
      <stop offset="50%" style="stop-color:#4F46E5"/>
      <stop offset="100%" style="stop-color:#8B5CF6"/>
    </linearGradient>
    
    <linearGradient id="monitorGradient" x1="0%" y1="0%" x2="100%" y2="100%">
      <stop offset="0%" style="stop-color:#374151"/>
      <stop offset="100%" style="stop-color:#1F2937"/>
    </linearGradient>
    
    <!-- Shadow filter -->
    <filter id="shadow">
      <feDropShadow dx="2" dy="4" stdDeviation="3" flood-opacity="0.2"/>
    </filter>
  </defs>

  <!-- Background -->
  <rect x="0" y="0" width="400" height="300" fill="url(#bgGradient)" opacity="0.2"/>
  
  <!-- Grid background pattern -->
  <defs>
    <pattern id="grid" width="20" height="20" patternUnits="userSpaceOnUse">
      <path d="M 20 0 L 0 0 0 20" fill="none" stroke="#4F46E5" stroke-width="0.5" opacity="0.1"/>
    </pattern>
  </defs>
  <rect width="400" height="300" fill="url(#grid)"/>
  
  <!-- Monitor setup -->
  <g transform="translate(50, 80)" filter="url(#shadow)">
    <!-- Monitor base/stand -->
    <rect x="140" y="140" width="20" height="15" fill="#6B7280"/>
    <rect x="120" y="155" width="60" height="5" rx="2" fill="#6B7280"/>
    
    <!-- Monitor screen -->
    <rect x="0" y="0" width="300" height="180" rx="8" fill="#374151"/>
    <rect x="8" y="8" width="284" height="164" rx="4" fill="url(#monitorGradient)"/>
    
    <!-- Screen content - Widget dashboard -->
    <!-- Header -->
    <rect x="15" y="15" width="270" height="20" rx="3" fill="#4F46E5" opacity="0.2"/>
    
    <!-- Widget grid -->
    <!-- Row 1 -->
    <g transform="translate(20, 45)">
      <!-- Widget 1 - Hexagonal -->
      <rect x="0" y="0" width="80" height="60" rx="6" fill="#00D4FF" opacity="0.3"/>
      <polygon transform="translate(40, 30)" points="12,0 24,7 24,21 12,28 0,21 0,7" 
               fill="url(#hexGradient)" opacity="0.8"/>
      <circle cx="46" cy="25" r="1.5" fill="white" opacity="0.8"/>
      <circle cx="54" cy="25" r="1.5" fill="white" opacity="0.8"/>
      <circle cx="50" cy="20" r="1" fill="white" opacity="0.6"/>
      <circle cx="50" cy="35" r="1" fill="white" opacity="0.6"/>
      
      <!-- Widget 2 -->
      <rect x="90" y="0" width="80" height="60" rx="6" fill="#4F46E5" opacity="0.3"/>
      <rect x="100" y="10" width="60" height="3" rx="1" fill="#4F46E5" opacity="0.8"/>
      <rect x="100" y="18" width="45" height="3" rx="1" fill="#4F46E5" opacity="0.6"/>
      <rect x="100" y="26" width="50" height="3" rx="1" fill="#4F46E5" opacity="0.7"/>
      <polygon transform="translate(155, 45)" points="6,0 12,3 12,9 6,12 0,9 0,3" 
               fill="url(#hexGradient)" opacity="0.6"/>
      
      <!-- Widget 3 -->
      <rect x="180" y="0" width="80" height="60" rx="6" fill="#8B5CF6" opacity="0.3"/>
      <circle cx="220" cy="30" r="15" fill="#8B5CF6" opacity="0.6"/>
      <polygon transform="translate(220, 30)" points="8,0 16,5 16,15 8,20 0,15 0,5" 
               fill="white" opacity="0.9"/>
      <circle cx="217" cy="27" r="1" fill="#8B5CF6"/>
      <circle cx="223" cy="27" r="1" fill="#8B5CF6"/>
      <circle cx="220" cy="33" r="1" fill="#8B5CF6"/>
    </g>
    
    <!-- Row 2 -->
    <g transform="translate(20, 115)">
      <!-- Widget 4 -->
      <rect x="0" y="0" width="80" height="45" rx="6" fill="#00D4FF" opacity="0.2"/>
      <rect x="10" y="10" width="60" height="2" rx="1" fill="#00D4FF" opacity="0.8"/>
      <rect x="10" y="16" width="40" height="2" rx="1" fill="#00D4FF" opacity="0.6"/>
      <rect x="10" y="22" width="50" height="2" rx="1" fill="#00D4FF" opacity="0.7"/>
      <rect x="10" y="28" width="35" height="2" rx="1" fill="#00D4FF" opacity="0.5"/>
      
      <!-- Widget 5 - Central large hexagonal widget -->
      <rect x="90" y="0" width="170" height="45" rx="6" fill="url(#hexGradient)" opacity="0.2"/>
      <polygon transform="translate(175, 22)" points="20,0 40,11.5 40,34.6 20,46.2 0,34.6 0,11.5" 
               fill="url(#hexGradient)" opacity="0.9"/>
      
      <!-- Pattern inside main hex -->
      <g transform="translate(175, 22)">
        <circle cx="12" cy="20" r="2" fill="white" opacity="0.8"/>
        <circle cx="28" cy="20" r="2" fill="white" opacity="0.8"/>
        <circle cx="20" cy="12" r="1.5" fill="white" opacity="0.6"/>
        <circle cx="20" cy="28" r="1.5" fill="white" opacity="0.6"/>
        <circle cx="8" cy="15" r="1" fill="white" opacity="0.4"/>
        <circle cx="32" cy="25" r="1" fill="white" opacity="0.4"/>
        <circle cx="15" cy="30" r="1" fill="white" opacity="0.4"/>
        <circle cx="25" cy="10" r="1" fill="white" opacity="0.4"/>
      </g>
    </g>
  </g>
  
  <!-- Person silhouette (developer) -->
  <g transform="translate(320, 160)" opacity="0.6">
    <circle cx="15" cy="15" r="8" fill="#6B7280"/>
    <rect x="5" y="23" width="20" height="30" rx="10" fill="#6B7280"/>
    <rect x="0" y="35" width="10" height="20" rx="5" fill="#6B7280"/>
    <rect x="20" y="35" width="10" height="20" rx="5" fill="#6B7280"/>
  </g>
  
  <!-- Floating hexagonal widget elements -->
  <g opacity="0.5">
    <!-- Top right -->
    <g transform="translate(350, 40)">
      <polygon points="12,0 24,7 24,21 12,28 0,21 0,7" fill="url(#hexGradient)" opacity="0.7"/>
      <circle cx="12" cy="14" r="1.5" fill="white" opacity="0.8"/>
    </g>
    
    <!-- Left side -->
    <g transform="translate(20, 120)">
      <polygon points="8,0 16,5 16,15 8,20 0,15 0,5" fill="url(#hexGradient)" opacity="0.6"/>
      <circle cx="8" cy="10" r="1" fill="white" opacity="0.8"/>
    </g>
    
    <!-- Bottom right -->
    <g transform="translate(360, 220)">
      <polygon points="10,0 20,6 20,18 10,24 0,18 0,6" fill="url(#hexGradient)" opacity="0.5"/>
      <circle cx="10" cy="12" r="1.2" fill="white" opacity="0.8"/>
    </g>
  </g>
  
  <!-- Dynamic motion elements -->
  <g opacity="0.6">
    <!-- Flowing shapes connecting widgets -->
    <circle cx="30" cy="50" r="3" fill="#8B5CF6"/>
    <circle cx="370" cy="180" r="4" fill="#00D4FF"/>
    <circle cx="15" cy="200" r="2" fill="#4F46E5"/>
    
    <!-- Connection lines -->
    <path d="M 340 50 Q 360 45 380 50" stroke="#00D4FF" stroke-width="2" 
          fill="none" opacity="0.4" stroke-linecap="round"/>
    <path d="M 20 180 Q 40 175 60 180" stroke="#8B5CF6" stroke-width="2" 
          fill="none" opacity="0.4" stroke-linecap="round"/>
  </g>
  
  <!-- Sparkles -->
  <g opacity="0.3">
    <circle cx="100" cy="30" r="1" fill="#00D4FF"/>
    <circle cx="320" cy="250" r="1.5" fill="#4F46E5"/>
    <circle cx="380" cy="100" r="1" fill="#8B5CF6"/>
  </g>
</svg>